<?xml version="1.0" standalone="no"?>
<!DOCTYPE svg PUBLIC "-//W3C//DTD SVG 20010904//EN"
 "http://www.w3.org/TR/2001/REC-SVG-20010904/DTD/svg10.dtd">
<svg version="1.0" xmlns="http://www.w3.org/2000/svg"
 width="1080.000000pt" height="1080.000000pt" viewBox="0 0 1080.000000 1080.000000"
 preserveAspectRatio="xMidYMid meet">

<g transform="translate(0.000000,1080.000000) scale(0.100000,-0.100000)"
fill="#000000" stroke="none">
<path d="M0 5400 l0 -5400 5400 0 5400 0 0 5400 0 5400 -5400 0 -5400 0 0
-5400z m8350 1593 c0 -7 -702 -2864 -731 -2975 l-10 -38 -119 0 c-66 0 -120 3
-120 8 -1 4 165 683 367 1509 l368 1503 123 0 c67 0 122 -3 122 -7z m-3070
-1458 c162 -444 296 -808 300 -810 4 -2 136 352 295 788 158 436 292 800 297
810 8 15 25 17 135 17 124 0 125 0 120 -22 -4 -12 -163 -437 -354 -945 l-348
-923 -145 0 -145 0 -353 938 c-193 515 -352 940 -352 945 0 4 58 7 129 7 l128
0 293 -805z m-2129 15 c189 -423 347 -766 351 -762 5 5 656 1448 685 1520 4 9
41 12 139 12 l134 0 0 -935 0 -935 -125 0 -125 0 -2 693 -3 693 -309 -693
-310 -694 -89 3 -88 3 -307 687 -307 688 -3 -690 -2 -690 -125 0 -125 0 0 935
0 935 133 0 133 0 345 -770z m-1141 506 c0 -2 -144 -140 -320 -306 -176 -166
-320 -306 -320 -310 0 -4 143 -144 318 -310 174 -166 319 -306 320 -311 2 -5
-61 -9 -146 -9 l-150 0 -326 312 c-180 171 -325 316 -323 321 1 5 147 146 322
313 l320 303 153 1 c83 0 152 -2 152 -4z m7395 -303 c179 -169 324 -311 322
-316 -1 -5 -149 -148 -327 -318 l-325 -309 -147 0 c-82 0 -148 4 -148 8 0 5
144 146 320 313 176 167 319 307 318 311 -2 4 -106 105 -233 224 -126 120
-272 257 -323 306 l-93 88 156 0 156 0 324 -307z"/>
</g>
</svg>
